<?xml version="1.0" encoding="UTF-8" standalone="no"?>
<!DOCTYPE svg PUBLIC "-//W3C//DTD SVG 1.1//EN" "http://www.w3.org/Graphics/SVG/1.1/DTD/svg11.dtd">
<svg width="100%" height="100%" viewBox="0 0 781 156" version="1.1" xmlns="http://www.w3.org/2000/svg" xmlns:xlink="http://www.w3.org/1999/xlink" xml:space="preserve" xmlns:serif="http://www.serif.com/" style="fill-rule:evenodd;clip-rule:evenodd;stroke-linejoin:round;stroke-miterlimit:1.41421;">
    <g transform="matrix(1,0,0,1,-50,-71)">
        <g transform="matrix(1,0,0,1,-1636,-76)">
            <g transform="matrix(0.454246,0,0,0.454246,2160.44,-369.607)">
                <path d="M640,1173.45L640,1192.39L475.225,1192.39L475.225,1426.26L640,1426.26L640,1445.2L454.637,1445.2L454.637,1173.45L640,1173.45ZM605.75,1319.35L522.975,1319.35L522.975,1300L605.75,1300L605.75,1319.35Z" style="stroke:black;stroke-width:11.01px;"/>
            </g>
            <g transform="matrix(0.454246,0,0,0.454246,1918.45,-366.455)">
                <path d="M735.451,1438.26L714.863,1438.26L714.863,1166.51L815.742,1166.51C842.917,1166.51 864.534,1173.37 880.593,1187.09C896.651,1200.82 904.68,1219.62 904.68,1243.5C904.68,1263.27 898.915,1279.67 887.386,1292.71C875.857,1305.75 860.074,1314.19 840.035,1318.03L919.091,1438.26L894.798,1438.26L816.982,1320.51L816.982,1301.14C838.135,1300.9 854.398,1295.96 865.77,1286.33C877.436,1276.44 883.269,1262.17 883.269,1243.5C883.269,1224.84 877.436,1210.5 865.77,1200.48C854.103,1190.46 837.291,1185.45 815.33,1185.45L735.451,1185.45L735.451,1438.26Z" style="stroke:black;stroke-width:11.01px;"/>
            </g>
            <g transform="matrix(3.74071,0,0,3.74071,-95.6047,-4217.73)">
                <rect x="611.321" y="1171.21" width="2.5" height="33" style="stroke:black;stroke-width:1.34px;"/>
            </g>
            <g transform="matrix(3.74071,0,0,3.74071,-95.6047,-4217.73)">
                <path d="M591.271,1204.21L588.321,1204.21L575.571,1171.21L578.271,1171.21L589.771,1201.86L601.321,1171.21L603.971,1171.21L591.271,1204.21Z" style="fill-rule:nonzero;stroke:black;stroke-width:1.34px;"/>
            </g>
            <g transform="matrix(0.454246,0,0,0.454246,1624.43,-366.453)">
                <path d="M735.451,1438.26L714.863,1438.26L714.863,1166.51L815.742,1166.51C842.917,1166.51 864.534,1173.37 880.593,1187.09C896.651,1200.82 904.68,1219.62 904.68,1243.5C904.68,1263.27 898.915,1279.67 887.386,1292.71C875.857,1305.75 860.074,1314.19 840.035,1318.03L919.091,1438.26L894.798,1438.26L816.982,1320.51L816.982,1301.14C838.135,1300.9 854.398,1295.96 865.77,1286.33C877.436,1276.44 883.269,1262.17 883.269,1243.5C883.269,1224.84 877.436,1210.5 865.77,1200.48C854.103,1190.46 837.291,1185.45 815.33,1185.45L735.451,1185.45L735.451,1438.26Z" style="stroke:black;stroke-width:11.01px;"/>
            </g>
            <g transform="matrix(0.454246,0,0,0.454246,1624.88,-369.607)">
                <path d="M640,1173.45L640,1192.39L475.225,1192.39L475.225,1426.26L640,1426.26L640,1445.2L454.637,1445.2L454.637,1173.45L640,1173.45ZM605.75,1319.35L522.975,1319.35L522.975,1300L605.75,1300L605.75,1319.35Z" style="stroke:black;stroke-width:11.01px;"/>
            </g>
            <g transform="matrix(0.454246,0,0,0.44289,1624.43,-351.435)">
                <path d="M190.637,1377.33C196.839,1390.11 206.126,1400.33 218.499,1408C235.106,1418.29 255.625,1423.44 280.056,1423.44C303.663,1423.44 322.946,1418.63 337.906,1409.03C352.867,1399.42 360.347,1386.24 360.347,1369.5C360.347,1354.95 354.239,1343.42 342.024,1334.91C329.809,1326.4 308.603,1319.54 278.409,1314.32C252.88,1309.93 232.704,1304.58 217.881,1298.27C203.058,1291.95 192.421,1284.13 185.971,1274.8C179.52,1265.46 176.295,1253.8 176.295,1239.8C176.295,1225.8 180.343,1212.9 188.441,1201.09C196.539,1189.29 208.068,1179.89 223.028,1172.89C237.988,1165.89 255.488,1162.39 275.526,1162.39C326.582,1162.39 360.757,1182.43 378.051,1222.5L354.158,1222.5C347.808,1210.29 339.646,1200.95 329.671,1194.51C316.084,1185.72 298.173,1181.33 275.938,1181.33C260.017,1181.33 246.155,1183.8 234.351,1188.74C222.548,1193.68 213.558,1200.41 207.382,1208.92C201.205,1217.43 198.117,1227.03 198.117,1237.74C198.117,1248.17 200.725,1256.82 205.941,1263.68C211.156,1270.54 220.009,1276.38 232.498,1281.18C244.988,1285.98 262.213,1290.31 284.173,1294.15C319.583,1300.19 344.7,1308.97 359.523,1320.5C374.346,1332.03 381.758,1347.95 381.758,1368.26C381.758,1382.81 377.503,1395.71 368.993,1406.97C360.484,1418.22 348.475,1426.94 332.965,1433.11C317.456,1439.29 299.682,1442.38 279.644,1442.38C251.096,1442.38 227.008,1436.68 207.382,1425.29C187.759,1413.9 174.378,1397.92 167.24,1377.33L190.637,1377.33Z" style="stroke:black;stroke-width:11.15px;"/>
            </g>
        </g>
    </g>
</svg>
